<svg width="40px" height="40px" viewBox="0 0 40 40" version="1.1" xmlns="http://www.w3.org/2000/svg" xmlns:xlink="http://www.w3.org/1999/xlink">
    <g stroke="none" stroke-width="1" fill="none" fill-rule="evenodd">
        <g transform="translate(-100.000000, -498.000000)" fill="#FFFFFF" fill-rule="nonzero">
            <g transform="translate(40.000000, 0.000000)">
                <g transform="translate(60.000000, 133.000000)">
                    <g transform="translate(0.000000, 361.000000)">
                        <g transform="translate(0.000000, 4.000000)">
                            <path d="M9.20125958,13.6207314 C9.50665053,13.9262025 9.50665053,14.4207377 9.20125958,14.7254275 C8.89664989,15.0308987 8.40133687,15.0308987 8.09664906,14.7254275 C7.79117999,14.4207377 7.79117999,13.9262025 8.09664906,13.6207314 C8.40125875,13.3160415 8.89657177,13.3160415 9.20125958,13.6207314 Z M19.7811925,34.9781639 C21.0242406,35.632544 21.8742415,36.9366948 21.8742415,38.436394 L21.8742415,39.2176501 C21.8742415,39.6491379 21.5243974,39.9989062 21.0929907,39.9989062 L0.781250814,39.9989062 C0.349844114,39.9989062 -1.02318154e-12,39.6491379 -1.02318154e-12,39.2176501 L-1.02318154e-12,38.436394 C-1.02318154e-12,36.9359917 0.850860261,35.631294 2.09484593,34.9772264 C1.76054871,34.5237072 1.5624235,33.9638591 1.5624235,33.3584637 C1.5624235,32.6277549 1.8467988,31.9411089 2.36320559,31.4248549 C2.879378,30.9085227 3.56601934,30.6241455 4.29672323,30.6241455 L17.5775183,30.6241455 C19.0852543,30.6241455 20.311818,31.8507957 20.311818,33.3584637 C20.311818,33.949484 20.125646,34.5115977 19.7811925,34.9781639 Z M3.46797236,32.529551 C3.24672213,32.7508027 3.12492513,33.04518 3.12492513,33.3583856 C3.12492513,34.0044844 3.65055068,34.5301916 4.29672323,34.5301916 L17.5774402,34.5301916 C17.8906436,34.5301916 18.1850189,34.4083938 18.406191,34.1871421 C18.6274413,33.9658904 18.7493164,33.6715912 18.7493164,33.3583075 C18.7493164,32.7122087 18.2236909,32.1865015 17.5775183,32.1865015 L4.29672323,32.1865015 C3.98351977,32.1865015 3.68914447,32.3082993 3.46797236,32.529551 Z M1.5624235,38.436394 L20.311818,38.436394 C20.311818,37.1441183 19.2604107,36.0927038 17.9681437,36.0927038 L17.5775183,36.0927038 L4.29672323,36.0927038 L3.90609782,36.0927038 C2.61383085,36.0927038 1.5624235,37.1441183 1.5624235,38.436394 Z M39.2729315,32.8223658 C40.1829325,34.2288612 40.2437138,36.080985 39.4270723,37.5398245 C38.6816028,38.8709287 37.4102733,39.7509356 35.9392562,39.9545309 C35.7191778,39.9849999 35.499412,40 35.2816774,40 C34.0465198,40 32.8700342,39.5167931 31.9793302,38.6263955 C31.889877,38.5369417 31.803705,38.4433472 31.7230799,38.3481902 L28.4800297,34.6220674 C28.465264,34.609411 28.4504203,34.5966765 28.4364359,34.5826921 C28.3954983,34.5417542 28.3604983,34.4971445 28.3304983,34.4502691 L17.4472057,21.9459527 C17.0093146,22.3637685 16.4377515,22.5936921 15.830329,22.5936921 C15.2040783,22.5936921 14.6155621,22.3498621 14.1729054,21.9072024 C13.9818114,21.7161853 13.8279832,21.4977461 13.7146237,21.2610255 L12.7712633,22.2044703 C13.0482948,23.2468222 12.7797008,24.4052688 11.9637625,25.2212908 C11.354465,25.8305143 10.5542297,26.1351261 9.75391641,26.1351261 C8.9536812,26.1351261 8.15344599,25.8305143 7.54414848,25.2212908 L0.915469703,18.592489 C-0.302969066,17.3739639 -0.302969066,15.3913702 0.915469703,14.1729232 C1.50539219,13.5830749 2.28984613,13.2581505 3.124847,13.2581505 C3.40187854,13.2581505 3.6730507,13.2947132 3.93367597,13.3640107 L13.3653264,3.93237447 C13.0882949,2.89002258 13.3568889,1.7314979 14.1728273,0.915554028 C14.7631404,0.32515879 15.5477506,2.84217094e-14 16.3822046,2.84217094e-14 C17.2170492,2.84217094e-14 18.0018937,0.32515879 18.592285,0.915554028 L25.2210419,7.54419956 C25.8114331,8.1345948 26.1365897,8.91936656 26.1365897,9.75398245 C26.1365897,10.5885983 25.8114331,11.3733701 25.2209638,11.9637653 C24.6119006,12.5728326 23.8117435,12.8773662 23.0116646,12.8774444 C22.7399456,12.8774444 22.4684609,12.8415066 22.2042419,12.7712717 L21.2589284,13.7165915 C21.4936943,13.8277643 21.713382,13.9795623 21.9066634,14.1726107 C22.349867,14.6157392 22.5936954,15.2044157 22.5936954,15.8308268 C22.5936954,16.4388784 22.3633827,17.0106798 21.945101,17.4479488 L32.1630804,26.3613778 L34.3706608,28.2867835 C34.4470671,28.323815 34.5189422,28.3732685 34.5823798,28.4366284 C34.6201142,28.4743631 34.653083,28.5149884 34.6815205,28.5578012 L38.3319149,31.7416542 C38.6910559,32.0475941 39.0076188,32.4111907 39.2729315,32.8223658 Z M15.2777503,2.02040641 C14.668609,2.62947367 14.668609,3.62049704 15.2777503,4.22956429 C15.2779065,4.22972054 15.2779847,4.22979867 15.2781409,4.22995492 L21.9071322,10.8589911 C22.5161172,11.4681365 23.507212,11.4681365 24.116197,10.8589911 C24.4115098,10.5637544 24.5740881,10.1713295 24.5740881,9.75406058 C24.5740881,9.33679169 24.4115098,8.94436675 24.1162751,8.64913007 L17.4875182,2.02040641 C17.1923617,1.72516973 16.7997831,1.56251221 16.3822827,1.56251221 C15.9653291,1.56251221 15.572985,1.72516973 15.2777503,2.02040641 Z M10.8589176,24.1164384 C11.4680588,23.5074493 11.4680588,22.5163478 10.8588394,21.9073587 L4.22898878,15.2774631 C3.9343791,14.9829296 3.54226931,14.8206627 3.124847,14.8206627 C2.70734657,14.8206627 2.31500241,14.9830077 2.0203146,15.2777756 C1.41101709,15.8871554 1.41101709,16.8784131 2.0203146,17.4877147 L8.64899338,24.1164384 C9.25821277,24.72574 10.2496982,24.7256619 10.8589176,24.1164384 Z M14.1481397,18.617958 C14.1571241,18.6085048 14.1659523,18.5991297 14.1750929,18.5901452 L18.5921287,14.1730014 C18.5996287,14.1655794 18.6065819,14.1590169 18.6136913,14.1522981 L20.802131,11.9637653 L14.1728273,5.33433855 L5.33430243,14.1730795 L11.9636843,20.8025063 L14.1481397,18.617958 Z M16.9376739,20.2477363 L20.2440836,16.9412261 C20.2477555,16.9374761 20.2515055,16.933726 20.2552555,16.9300541 L20.8022092,16.3830967 C20.9501781,16.2355175 21.0312719,16.0396566 21.0312719,15.8308268 C21.0312719,15.6218408 20.9499437,15.425433 20.8022873,15.2777756 C20.5017401,14.9775389 20.0100208,14.973867 19.7058799,15.2696505 L15.2682972,19.7072633 C15.1266564,19.8524207 15.0486094,20.0448441 15.0486094,20.2493769 C15.0486094,20.458363 15.1299376,20.6547707 15.2776722,20.8024281 C15.4251723,20.9500074 15.6214225,21.0312581 15.8302509,21.0312581 C16.0391573,21.0312581 16.2353294,20.9500074 16.3829077,20.8025063 L16.9330645,20.2523457 C16.934627,20.2507832 16.9361114,20.2492988 16.9376739,20.2477363 Z M18.5554881,20.8395378 L26.9784656,30.5164884 L30.5061255,26.9887265 L20.8387717,18.5562387 L18.5554881,20.8395378 Z M28.0066698,31.6979039 L29.034874,32.8793975 L32.8665186,29.0476488 L31.686283,28.0181876 L28.0066698,31.6979039 Z M38.0638678,36.7765373 C38.5926964,35.8316862 38.5512902,34.5832389 37.9605083,33.6703412 C37.77668,33.3854952 37.5600391,33.1361964 37.3158982,32.9286166 C37.3133201,32.9264291 37.3108201,32.9243197 37.3083982,32.9221322 L34.0466761,30.0770319 L30.0630001,34.060813 L32.9051905,37.3266197 C32.9077686,37.3295104 32.9102687,37.3324792 32.9127687,37.3354479 C32.9663625,37.3988859 33.0238625,37.4614645 33.0839407,37.521465 C33.7825352,38.2197517 34.7452706,38.5424886 35.7251153,38.4068626 C36.7072257,38.270924 37.5596485,37.6767787 38.0638678,36.7765373 Z M14.7253278,8.09654763 C15.0304063,8.40170626 15.0304063,8.8963195 14.7253278,9.20132189 L11.4106369,12.5160353 C11.2580586,12.6685365 11.0581365,12.7448652 10.8582144,12.7448652 C10.6582924,12.7448652 10.4583703,12.6686146 10.305792,12.5160353 C10.0007135,12.2110329 10.0007135,11.7163415 10.305792,11.411261 L13.6204829,8.09654763 C13.9256395,7.79146712 14.4201713,7.79146712 14.7253278,8.09654763 Z" id="Combined-Shape"></path>
                        </g>
                    </g>
                </g>
            </g>
        </g>
    </g>
</svg>