<svg width="36px" height="40px" viewBox="0 0 36 40" version="1.1" xmlns="http://www.w3.org/2000/svg" xmlns:xlink="http://www.w3.org/1999/xlink">
    <g stroke="none" stroke-width="1" fill="none" fill-rule="evenodd">
        <g transform="translate(-953.000000, -11498.000000)">
            <g transform="translate(951.000000, 11494.000000)">
                <g transform="translate(0.000000, 4.000000)">
                    <rect x="0" y="0" width="40" height="40"></rect>
                    <g transform="translate(2.000000, 0.000000)" fill="#00D6D6" fill-rule="nonzero">
                        <path d="M21.9130435,6.484375 C22.3450435,6.484375 22.6956522,6.834375 22.6956522,7.265625 C22.6956522,7.696875 22.3450435,8.046875 21.9130435,8.046875 C21.4810435,8.046875 21.1304348,7.696875 21.1304348,7.265625 C21.1304348,6.834375 21.4810435,6.484375 21.9130435,6.484375 Z M14.0869565,6.484375 C14.5189565,6.484375 14.8695652,6.834375 14.8695652,7.265625 C14.8695652,7.696875 14.5189565,8.046875 14.0869565,8.046875 C13.6549565,8.046875 13.3043478,7.696875 13.3043478,7.265625 C13.3043478,6.834375 13.6549565,6.484375 14.0869565,6.484375 Z M34.9922348,23.3501563 C35.6458696,24.2711719 36,25.3628125 36,26.484375 C36,27.9388281 35.409287,29.3242188 34.3644261,30.3529688 C34.4116174,30.6379688 34.4347826,30.9086719 34.4347826,31.171875 C34.4347826,34.2632813 31.9260522,36.875 28.9565217,36.875 C28.9322609,36.875 28.9084696,36.8746094 28.8849913,36.8739063 C27.772513,38.7896875 25.7075217,40 23.4782609,40 C21.1548522,40 19.0787478,38.6078125 18,36.6020313 C16.9212522,38.6078125 14.8451478,40 12.5217391,40 C10.2924783,40 8.22748696,38.7896875 7.1150087,36.8739063 C7.0916087,36.8746094 7.06773913,36.875 7.04347826,36.875 C3.68804348,36.875 1.0983913,33.5945313 1.63557391,30.3529688 C0.590713043,29.3242188 0,27.93875 0,26.484375 C0,25.3628125 0.354130435,24.2711719 1.00776522,23.3500781 C0.338869565,22.3478125 0,21.09375 0,20 C0,18.3596875 0.72993913,16.8357813 1.98250435,15.8022656 C1.70530435,15.1410156 1.56521739,14.4532813 1.56521739,13.75 C1.56521739,11.5738281 2.83750435,9.5465625 4.72891304,8.6 C4.44271304,6.23835938 5.97913043,4.04953125 8.29134783,3.49046875 C9.1908,1.414375 11.1931043,0 13.3043478,0 C15.2694,0 17.031913,1.14421875 18,2.81375 C18.9680087,1.14421875 20.7305217,0 22.6956522,0 C24.8067391,0 26.8090435,1.414375 27.7086522,3.49039063 C30.0070957,4.0459375 31.5580696,6.22390625 31.271087,8.6 C33.1625739,9.54664063 34.4347826,11.5738281 34.4347826,13.75 C34.4347826,14.4532813 34.2946957,15.1410156 34.0174957,15.8022656 C35.2700609,16.8357031 36,18.3596875 36,20 C36,21.0880469 35.6639478,22.34375 34.9922348,23.3501563 Z M17.2173913,11.8266406 L17.2173913,5.703125 C17.2173913,3.49734375 15.3889043,1.5625 13.3043478,1.5625 C11.9538783,1.5625 10.8061826,2.3925 10.116,3.41523438 C11.0946522,3.56570313 11.9977043,4.01976563 12.7116783,4.73171875 C13.0174435,5.03664063 13.0176783,5.53125 12.7122261,5.8365625 C12.4066957,6.14171875 11.9112261,6.14203125 11.6054609,5.83710938 C11.0136522,5.24695313 10.227287,4.921875 9.39130435,4.921875 C7.67872174,4.921875 6.26086957,6.30335938 6.26086957,8.046875 C6.26086957,8.06757813 6.26243478,8.08757813 6.26282609,8.108125 C6.52085217,8.06804688 6.78146087,8.046875 7.04347826,8.046875 C10.0130087,8.046875 12.5217391,10.6585938 12.5217391,13.75 C12.5217391,14.1814844 12.1713652,14.53125 11.7391304,14.53125 C11.3068957,14.53125 10.9565217,14.1814844 10.9565217,13.75 C10.9565217,11.5442969 9.12803478,9.609375 7.04347826,9.609375 C4.85233043,9.609375 3.13043478,11.6414063 3.13043478,13.75 C3.13043478,14.4064844 3.30683478,15.0499219 3.65470435,15.6623438 C3.8606087,16.0247656 3.74533043,16.4846875 3.39276522,16.7076563 C2.24835652,17.4313281 1.56521739,18.6621094 1.56521739,20 C1.56521739,22.2054688 3.35433913,24.140625 5.47826087,24.140625 C5.91049565,24.140625 6.26086957,24.4903906 6.26086957,24.921875 C6.26086957,25.3533594 5.91049565,25.703125 5.47826087,25.703125 C4.24573043,25.703125 3.07815652,25.2420313 2.13949565,24.4740625 C1.76595652,25.0821875 1.56521739,25.7757031 1.56521739,26.484375 C1.56521739,27.6305469 2.08518261,28.7198438 2.99175652,29.4728906 C3.22082609,29.6632031 3.32178261,29.9667969 3.25205217,30.2560938 C2.57306087,33.0726563 5.08132174,35.5903906 7.30862609,35.2863281 C7.36364348,35.2788281 7.41866087,35.2714844 7.4739913,35.2651563 C7.80902609,35.2275 8.13036522,35.4074219 8.27225217,35.7125 C9.04186957,37.3678906 10.7098435,38.4375 12.5217391,38.4375 C15.0670174,38.4375 17.2173913,36.1835156 17.2173913,33.515625 C17.2173913,30.9309375 15.1109217,28.828125 12.5217391,28.828125 C12.0895043,28.828125 11.7391304,28.4783594 11.7391304,28.046875 C11.7391304,27.6153906 12.0895043,27.265625 12.5217391,27.265625 C14.3903739,27.265625 16.0692261,28.088125 17.2173913,29.3882031 L17.2173913,14.53125 C17.2173913,13.6696875 16.5152348,12.96875 15.6521739,12.96875 C15.2199391,12.96875 14.8695652,12.6189844 14.8695652,12.1875 C14.8695652,11.7560156 15.2199391,11.40625 15.6521739,11.40625 C16.2221478,11.40625 16.7565913,11.5598438 17.2173913,11.8266406 Z M30.5217391,25.703125 C30.0895826,25.703125 29.7391304,25.3533594 29.7391304,24.921875 C29.7391304,24.4903906 30.0895826,24.140625 30.5217391,24.140625 C32.6394,24.140625 34.4347826,22.2133594 34.4347826,20 C34.4347826,18.6621094 33.7516435,17.4313281 32.607313,16.7076563 C32.2547478,16.4846875 32.1394696,16.0247656 32.3452957,15.6623438 C32.6931652,15.0499219 32.8695652,14.4064844 32.8695652,13.75 C32.8695652,11.6403906 31.1464174,9.609375 28.9565217,9.609375 C26.8719652,9.609375 25.0434783,11.5442969 25.0434783,13.75 C25.0434783,14.1814844 24.6930261,14.53125 24.2608696,14.53125 C23.828713,14.53125 23.4782609,14.1814844 23.4782609,13.75 C23.4782609,10.6585938 25.9869913,8.046875 28.9565217,8.046875 C29.2185391,8.046875 29.4791478,8.06804688 29.7371739,8.108125 C29.7375652,8.08757813 29.7391304,8.0675 29.7391304,8.046875 C29.7391304,6.31148438 28.329887,4.921875 26.6086957,4.921875 C25.772713,4.921875 24.9864261,5.24695313 24.3943826,5.83710938 C24.0886957,6.14203125 23.5930696,6.14179688 23.2876174,5.83648438 C22.9821652,5.53117188 22.9824783,5.0365625 23.2883217,4.73164063 C24.0023739,4.0196875 24.9053478,3.565625 25.8839217,3.41515625 C25.1937391,2.3925 24.0461217,1.5625 22.6956522,1.5625 C20.6110957,1.5625 18.7826087,3.49734375 18.7826087,5.703125 L18.7826087,11.8266406 C19.2434087,11.5598438 19.7778522,11.40625 20.3478261,11.40625 C20.7799826,11.40625 21.1304348,11.7560156 21.1304348,12.1875 C21.1304348,12.6189844 20.7799826,12.96875 20.3478261,12.96875 C19.4847652,12.96875 18.7826087,13.6696875 18.7826087,14.53125 L18.7826087,29.3882031 C19.9307739,28.088125 21.6096261,27.265625 23.4782609,27.265625 C23.9104174,27.265625 24.2608696,27.6153906 24.2608696,28.046875 C24.2608696,28.4783594 23.9104174,28.828125 23.4782609,28.828125 C20.8890783,28.828125 18.7826087,30.9309375 18.7826087,33.515625 C18.7826087,36.1835156 20.9329826,38.4375 23.4782609,38.4375 C25.2900783,38.4375 26.9582087,37.3678906 27.7278261,35.7125 C27.8695565,35.4074219 28.1905043,35.2272656 28.5260087,35.2651563 C28.5813391,35.2714063 28.6364348,35.2788281 28.6914522,35.2863281 C30.6723913,35.5566406 32.8695652,33.5967969 32.8695652,31.1717969 C32.8695652,30.8910938 32.8309826,30.6000781 32.7480261,30.2560938 C32.6782957,29.966875 32.7791739,29.6632031 33.0083217,29.4728906 C33.9148174,28.7198438 34.4347826,27.6305469 34.4347826,26.484375 C34.4347826,25.7757813 34.2340435,25.0823438 33.8605826,24.4742969 C32.9219217,25.2419531 31.7543478,25.703125 30.5217391,25.703125 Z M15.4528435,16.7228906 C15.741,17.0444531 15.7134522,17.5383594 15.3913304,17.8260156 C14.5641913,18.5646875 13.5398348,19.0296094 12.4514609,19.1717188 C12.1061739,20.9757813 10.5148957,22.34375 8.60869565,22.34375 C8.17646087,22.34375 7.82608696,21.9939844 7.82608696,21.5625 C7.82608696,21.1310156 8.17646087,20.78125 8.60869565,20.78125 C9.65629565,20.78125 10.5456522,20.0925781 10.8469565,19.1450781 C8.24924348,18.7183594 6.26086957,16.4621094 6.26086957,13.75 C6.26086957,13.3185156 6.61124348,12.96875 7.04347826,12.96875 C7.47571304,12.96875 7.82608696,13.3185156 7.82608696,13.75 C7.82608696,17.1114844 11.8381304,18.9025 14.3478,16.6614844 C14.67,16.3738281 15.164687,16.4013281 15.4528435,16.7228906 Z M7.04347826,30.390625 C10.0130087,30.390625 12.5217391,33.0023438 12.5217391,36.09375 C12.5217391,36.5252344 12.1713652,36.875 11.7391304,36.875 C11.3068957,36.875 10.9565217,36.5252344 10.9565217,36.09375 C10.9565217,33.8880469 9.12803478,31.953125 7.04347826,31.953125 C6.61124348,31.953125 6.26086957,31.6033594 6.26086957,31.171875 C6.26086957,30.7403906 6.61124348,30.390625 7.04347826,30.390625 Z M13.3043478,24.140625 C13.7365826,24.140625 14.0869565,24.4903906 14.0869565,24.921875 C14.0869565,25.3533594 13.7365826,25.703125 13.3043478,25.703125 C11.2445217,25.703125 9.47222609,26.8292969 8.53818261,28.4742969 C8.325,28.8496875 7.84745217,28.9814063 7.4714087,28.7686719 C7.09544348,28.5559375 6.96341739,28.0791406 7.17652174,27.70375 C8.37547826,25.5925781 10.6524,24.140625 13.3043478,24.140625 Z M27.3913043,20.78125 C27.8234609,20.78125 28.173913,21.1310156 28.173913,21.5625 C28.173913,21.9939844 27.8234609,22.34375 27.3913043,22.34375 C25.4851043,22.34375 23.8938261,20.9757813 23.5485391,19.1717188 C22.4602435,19.0296094 21.4358087,18.5646875 20.6086696,17.8260156 C20.2865478,17.5383594 20.2589217,17.0444531 20.5471565,16.7228906 C20.835313,16.40125 21.3301565,16.3738281 21.6522,16.6614844 C22.3706348,17.3029688 23.2970087,17.65625 24.2608696,17.65625 C26.4185217,17.65625 28.173913,15.9039063 28.173913,13.75 C28.173913,13.3185156 28.5243652,12.96875 28.9565217,12.96875 C29.3886783,12.96875 29.7391304,13.3185156 29.7391304,13.75 C29.7391304,16.4621094 27.7507565,18.7183594 25.1530435,19.1450781 C25.4543478,20.0925781 26.3437043,20.78125 27.3913043,20.78125 Z M28.9565217,30.390625 C29.3886783,30.390625 29.7391304,30.7403906 29.7391304,31.171875 C29.7391304,31.6033594 29.3886783,31.953125 28.9565217,31.953125 C26.8719652,31.953125 25.0434783,33.8880469 25.0434783,36.09375 C25.0434783,36.5252344 24.6930261,36.875 24.2608696,36.875 C23.828713,36.875 23.4782609,36.5252344 23.4782609,36.09375 C23.4782609,33.0023438 25.9869913,30.390625 28.9565217,30.390625 Z M28.8234783,27.7038281 C29.0365043,28.0792187 28.9044783,28.5560156 28.5284348,28.76875 C28.1530174,28.98125 27.6750783,28.8501562 27.4616609,28.4742969 C26.5276174,26.8289844 24.7539913,25.703125 22.6956522,25.703125 C22.2634957,25.703125 21.9130435,25.3533594 21.9130435,24.921875 C21.9130435,24.4903906 22.2634957,24.140625 22.6956522,24.140625 C25.3537043,24.140625 27.6274957,25.5976563 28.8234783,27.7038281 Z"></path>
                    </g>
                </g>
            </g>
        </g>
    </g>
</svg>