<svg width="40px" height="36px" viewBox="0 0 40 36" version="1.1" xmlns="http://www.w3.org/2000/svg" xmlns:xlink="http://www.w3.org/1999/xlink">
    <g stroke="none" stroke-width="1" fill="none" fill-rule="evenodd">
        <g transform="translate(-280.000000, -11500.000000)">
            <g transform="translate(280.000000, 11494.000000)">
                <g transform="translate(0.000000, 4.000000)">
                    <rect x="0" y="0" width="40" height="40"></rect>
                    <g transform="translate(0.000000, 2.000000)" fill="#00D6D6" fill-rule="nonzero">
                        <path d="M39.9926667,12 C39.9266667,10.8593333 38.57,9.968 35.8566667,9.288 C35.948,9.088 35.9993333,8.88 36,8.664 L36,4 L35.9886667,4 C35.75,0.114666667 19.8286667,0 18,0 C16.1713333,0 0.25,0.114666667 0.0113333333,4 L0,4 L0,4.08666667 L0,4.08666667 L0,4.08666667 L0,8.666 C0.00333333333,9.93266667 1.638,10.924 4.07,11.662 C4.03666667,11.7726667 4.01666667,11.8853333 4.01,12 L4,12 L4,12.0866667 L4,12.0866667 L4,12.0866667 L4,16.658 C1.38,17.3326667 0.0713333333,18.2113333 0.00666666667,19.3333333 L0,19.3333333 L0,19.42 L0,19.42 L0,19.42 L0,23.9993333 C0.002,24.8813333 0.797333333,25.6293333 2.09866667,26.2526667 C2.04933333,26.388 2.01866667,26.526 2.01,26.6673333 L2,26.6673333 L2,26.754 L2,26.754 L2,26.754 L2,31.3333333 C2.00533333,33.5506667 6.998,34.9273333 12.5453333,35.57 C12.586,35.578 12.6233333,35.5946667 12.6666667,35.5946667 C12.6793333,35.5946667 12.69,35.588 12.7026667,35.5873333 C13.772,35.708 14.8586667,35.802 15.934,35.8693333 C15.9566667,35.872 15.9766667,35.8826667 16,35.8826667 C16.0126667,35.8826667 16.0226667,35.876 16.0346667,35.8753333 C17.4,35.958 18.7433333,36 20,36 C21.2566667,36 22.6,35.958 23.9653333,35.8746667 C23.9773333,35.8753333 23.988,35.882 24,35.882 C24.0233333,35.882 24.0433333,35.8706667 24.066,35.8686667 C25.1413333,35.8013333 26.228,35.708 27.2973333,35.5866667 C27.31,35.5866667 27.3206667,35.5933333 27.3333333,35.5933333 C27.3766667,35.5933333 27.414,35.5766667 27.4546667,35.5686667 C33.002,34.926 37.994,33.5486667 38,31.3306667 L38,26.6666667 L37.9893333,26.6666667 C37.9426667,25.8493333 37.246,25.1673333 35.87,24.5973333 C35.954,24.4046667 36,24.2046667 36,23.9973333 L36,19.64 C38.3933333,18.904 39.9966667,17.9193333 40,16.664 L40,12 L39.9926667,12 Z M34.5946667,24.214 L34.3673333,24.4133333 C34.0173333,24.722 33.434,25.0333333 32.6666667,25.3333333 L32.6666667,22.1546667 C33.4593333,21.8786667 34.134,21.5726667 34.6666667,21.2373333 L34.6666667,23.996 C34.6666667,24.0646667 34.6413333,24.138 34.5946667,24.214 Z M19.684,27.312 C19.5866667,27.3146667 19.4886667,27.316 19.3906667,27.318 C19.1526667,27.3226667 18.9086667,27.324 18.6673333,27.326 L18.6673333,23.996 C18.8506667,23.994 19.034,23.9913333 19.2173333,23.988 C19.2526667,23.9873333 19.288,23.9866667 19.3233333,23.986 C19.9946667,23.9733333 20.666,23.9526667 21.334,23.922 L21.334,27.2506667 C21.1913333,27.258 21.048,27.2646667 20.9033333,27.2706667 C20.502,27.2886667 20.0966667,27.302 19.684,27.312 Z M16.7726667,27.3213333 C16.4673333,27.316 16.1633333,27.3086667 15.8613333,27.2993333 C15.824,27.298 15.7866667,27.2966667 15.7493333,27.2953333 C15.386,27.2833333 15.0253333,27.268 14.6673333,27.2506667 L14.6673333,23.9226667 C15.3353333,23.954 16.0066667,23.9746667 16.678,23.9866667 C16.7133333,23.9873333 16.7486667,23.988 16.7833333,23.9886667 C16.9666667,23.992 17.15,23.9946667 17.3333333,23.9966667 L17.3333333,27.3286667 C17.204,27.3273333 17.0746667,27.3273333 16.946,27.3253333 C16.8873333,27.324 16.8306667,27.322 16.7726667,27.3213333 Z M4.73133333,25.8013333 C4.70933333,25.7946667 4.68866667,25.7886667 4.66666667,25.7826667 L4.66666667,22.562 C5.28933333,22.73 5.95866667,22.8833333 6.66666667,23.0226667 L6.66666667,26.2766667 C6.05466667,26.1466667 5.49,26.01 4.976,25.87 C4.89466667,25.8466667 4.81066667,25.8246667 4.73133333,25.8013333 Z M18.7833333,31.322 C18.9666667,31.3253333 19.15,31.328 19.3333333,31.33 L19.3333333,34.6626667 C18.412,34.654 17.5226667,34.6273333 16.6666667,34.5853333 L16.6666667,31.2566667 C17.3346667,31.288 18.006,31.3086667 18.6773333,31.3206667 C18.7126667,31.3206667 18.748,31.3213333 18.7833333,31.322 Z M21.3226667,31.32 C21.994,31.3073333 22.6653333,31.2866667 23.3333333,31.256 L23.3333333,34.5846667 C22.4773333,34.6266667 21.588,34.6533333 20.6666667,34.662 L20.6666667,31.3293333 C20.85,31.3273333 21.0333333,31.3246667 21.2166667,31.3213333 C21.252,31.3213333 21.2873333,31.3206667 21.3226667,31.32 Z M26.6666667,31.0186667 L26.6666667,34.3293333 C26.026,34.3966667 25.3593333,34.456 24.6666667,34.5046667 L24.6666667,31.18 C25.3426667,31.136 26.0106667,31.082 26.6666667,31.0186667 Z M28,30.8746667 C28.6873333,30.792 29.3546667,30.698 30,30.5933333 L30,33.8666667 C29.372,33.9773333 28.7046667,34.0793333 28,34.172 L28,30.8746667 Z M31.3333333,30.3553333 C32.0413333,30.216 32.7106667,30.0626667 33.3333333,29.8946667 L33.3333333,33.1153333 C32.7393333,33.2866667 32.0706667,33.4526667 31.3333333,33.6093333 L31.3333333,30.3553333 Z M8.66666667,30.3553333 L8.66666667,33.6093333 C7.92933333,33.4526667 7.26066667,33.2866667 6.66666667,33.1153333 L6.66666667,29.8946667 C7.28933333,30.0626667 7.95866667,30.2166667 8.66666667,30.3553333 Z M10,30.594 C10.6453333,30.6986667 11.3126667,30.7926667 12,30.8753333 L12,34.1726667 C11.2953333,34.08 10.628,33.978 10,33.8673333 L10,30.594 Z M13.3333333,31.0186667 C13.9893333,31.082 14.6573333,31.136 15.3333333,31.1806667 L15.3333333,34.5053333 C14.6406667,34.4566667 13.974,34.3973333 13.3333333,34.33 L13.3333333,31.0186667 Z M11.6793333,27.032 C11.6113333,27.0253333 11.544,27.018 11.4766667,27.0113333 C11.4286667,27.0066667 11.3813333,27.0006667 11.3333333,26.996 L11.3333333,23.686 C11.9893333,23.7493333 12.6573333,23.8033333 13.3333333,23.848 L13.3333333,27.17 C12.7733333,27.13 12.22,27.0846667 11.6793333,27.032 Z M10,23.5413333 L10,26.8386667 C9.29533333,26.746 8.628,26.644 8,26.5333333 L8,23.26 C8.64533333,23.3646667 9.31266667,23.4593333 10,23.5413333 Z M23.1106667,27.1386667 C22.964,27.15 22.816,27.1613333 22.6666667,27.172 L22.6666667,23.8473333 C23.3426667,23.8026667 24.0106667,23.7493333 24.6666667,23.6853333 L24.6666667,26.996 C24.2546667,27.0393333 23.8333333,27.08 23.4006667,27.1153333 C23.304,27.124 23.2073333,27.1313333 23.1106667,27.1386667 Z M26,26.8386667 L26,23.5413333 C26.6873333,23.4586667 27.3546667,23.3646667 28,23.26 L28,26.5333333 C27.372,26.644 26.7046667,26.7466667 26,26.8386667 Z M29.3333333,23.022 C30.0413333,22.8826667 30.7106667,22.7293333 31.3333333,22.5613333 L31.3333333,25.782 C30.7393333,25.9533333 30.0706667,26.1193333 29.3333333,26.276 L29.3333333,23.022 Z M20.2166667,19.9766667 C19.7153333,19.964 19.2253333,19.9446667 18.744,19.9213333 C18.718,19.92 18.692,19.9186667 18.6666667,19.918 L18.6666667,16.5893333 C19.3346667,16.6206667 20.006,16.6413333 20.6773333,16.6533333 C20.7126667,16.654 20.748,16.6546667 20.7826667,16.6553333 C20.966,16.6586667 21.1493333,16.6613333 21.3326667,16.6633333 L21.3326667,19.992 C21.008,19.9886667 20.6806667,19.9873333 20.364,19.98 C20.3153333,19.9786667 20.2653333,19.978 20.2166667,19.9766667 Z M4.66666667,10.4493333 L4.66666667,7.22866667 C5.28933333,7.39666667 5.95866667,7.55 6.66666667,7.68933333 L6.66666667,10.9433333 C6.58466667,10.926 6.5,10.9086667 6.42,10.8913333 C6.06533333,10.8133333 5.71933333,10.732 5.38866667,10.646 C5.13666667,10.5813333 4.89733333,10.5153333 4.66666667,10.4493333 Z M16.7833333,8.65533333 C16.9666667,8.65866667 17.15,8.66133333 17.3333333,8.66333333 L17.3333333,11.992 C16.436,11.9833333 15.544,11.96 14.6666667,11.916 L14.6666667,8.59 C15.3346667,8.62133333 16.006,8.642 16.6773333,8.654 C16.7126667,8.654 16.748,8.65466667 16.7833333,8.65533333 Z M19.3226667,8.65333333 C19.994,8.64066667 20.6653333,8.62 21.3333333,8.58933333 L21.3333333,11.9153333 C21.22,11.9206667 21.1113333,11.9286667 20.9973333,11.934 C20.988,11.9346667 20.9786667,11.9346667 20.9686667,11.9353333 C20.5213333,11.9553333 20.0653333,11.97 19.6033333,11.9806667 C19.5313333,11.9826667 19.4593333,11.9833333 19.3873333,11.9853333 C19.15,11.99 18.9073333,11.9906667 18.6666667,11.9933333 L18.6666667,8.66333333 C18.85,8.66133333 19.0333333,8.65866667 19.2166667,8.65533333 C19.252,8.65466667 19.2873333,8.654 19.3226667,8.65333333 Z M34.514,8.988 L34.4953333,8.984 L34.2526667,9.17266667 C33.9006667,9.44666667 33.36,9.724 32.6666667,9.992 L32.6666667,6.82066667 C33.4593333,6.54466667 34.134,6.23866667 34.6666667,5.90333333 L34.6666667,8.662 C34.6666667,8.76333333 34.6133333,8.87266667 34.514,8.988 Z M26,11.5013333 L26,8.208 C26.6873333,8.12533333 27.3546667,8.03133333 28,7.92666667 L28,11.1946667 C27.368,11.3066667 26.7026667,11.4093333 26,11.5013333 Z M29.3333333,10.938 L29.3333333,7.68933333 C30.0413333,7.55 30.7106667,7.39666667 31.3333333,7.22866667 L31.3333333,10.442 C30.736,10.616 30.0633333,10.782 29.3333333,10.938 Z M24.6666667,8.352 L24.6666667,11.6586667 C24.0226667,11.7266667 23.356,11.786 22.6666667,11.8353333 L22.6666667,8.514 C23.3426667,8.46933333 24.0106667,8.41533333 24.6666667,8.352 Z M11.3333333,11.66 L11.3333333,8.352 C11.9893333,8.41533333 12.6573333,8.46933333 13.3333333,8.514 L13.3333333,11.8326667 C12.6546667,11.784 11.9853333,11.7286667 11.3333333,11.66 Z M10,8.208 L10,11.502 C9.868,11.4846667 9.73066667,11.4706667 9.6,11.4526667 C9.51466667,11.4406667 9.43333333,11.428 9.34933333,11.416 C8.964,11.3606667 8.58733333,11.3013333 8.218,11.2393333 C8.144,11.2266667 8.07266667,11.2133333 8,11.2006667 L8,7.92733333 C8.64533333,8.03133333 9.31266667,8.126 10,8.208 Z M17.168,19.826 C17.078,19.8193333 16.9873333,19.8126667 16.898,19.806 C16.4713333,19.7726667 16.0546667,19.736 15.648,19.6953333 C15.5606667,19.6866667 15.4733333,19.6773333 15.3866667,19.6686667 C15.3686667,19.6666667 15.3513333,19.664 15.3333333,19.6626667 L15.3333333,16.352 C15.9893333,16.4153333 16.6573333,16.4693333 17.3333333,16.514 L17.3333333,19.8366667 C17.2793333,19.8326667 17.222,19.83 17.168,19.826 Z M12.7633333,19.328 C12.4993333,19.286 12.2513333,19.2406667 12,19.1966667 L12,15.9273333 C12.6453333,16.032 13.3126667,16.126 14,16.2086667 L14,19.506 C13.592,19.452 13.1926667,19.396 12.8093333,19.336 C12.794,19.3326667 12.7786667,19.33 12.7633333,19.328 Z M10.6666667,15.6886667 L10.6666667,18.9373333 C9.93,18.7793333 9.262,18.6113333 8.66666667,18.4366667 L8.66666667,15.228 C9.28933333,15.396 9.95866667,15.55 10.6666667,15.6886667 Z M7.33333333,14.8206667 L7.33333333,17.988 C6.28533333,17.5833333 5.60933333,17.17 5.38933333,16.802 L5.34466667,16.7273333 C5.34066667,16.7066667 5.334,16.6846667 5.33333333,16.664 L5.33333333,13.9033333 C5.866,14.2386667 6.54066667,14.5446667 7.33333333,14.8206667 Z M23.3226667,16.6533333 C23.994,16.6406667 24.6653333,16.62 25.3333333,16.5893333 L25.3333333,19.9146667 C24.4573333,19.958 23.5666667,19.982 22.6666667,19.9913333 L22.6666667,16.6633333 C22.85,16.6613333 23.0333333,16.6586667 23.2166667,16.6553333 C23.252,16.6546667 23.2873333,16.654 23.3226667,16.6533333 Z M31.938,19.2113333 C31.6453333,19.262 31.35,19.312 31.0466667,19.358 C30.8726667,19.3846667 30.6946667,19.41 30.516,19.4353333 C30.3473333,19.4593333 30.172,19.48 30.0006667,19.502 L30.0006667,16.208 C30.688,16.1253333 31.3553333,16.0313333 32.0006667,15.9266667 L32.0006667,19.2 C31.9793333,19.204 31.9586667,19.208 31.938,19.2113333 Z M27.424,19.7806667 C27.1753333,19.8013333 26.9186667,19.8146667 26.6666667,19.8326667 L26.6666667,16.514 C27.3426667,16.4693333 28.0106667,16.416 28.6666667,16.352 L28.6666667,19.6593333 C28.2793333,19.7 27.8926667,19.7406667 27.4946667,19.774 C27.4706667,19.776 27.448,19.7786667 27.424,19.7806667 Z M35.0426667,18.5306667 C34.7106667,18.6233333 34.3593333,18.71 34.0006667,18.7946667 C33.8346667,18.8333333 33.6653333,18.872 33.492,18.9093333 C33.4406667,18.9206667 33.386,18.9306667 33.334,18.942 L33.334,15.6893333 C34.042,15.55 34.7113333,15.3966667 35.334,15.2286667 L35.334,18.4493333 C35.238,18.476 35.1413333,18.5033333 35.0426667,18.5306667 Z M38.6593333,12.0433333 C38.598,12.496 37.572,13.098 35.7406667,13.664 L35.7406667,13.664 C33.382,14.3926667 29.6913333,15.06 25.014,15.2666667 C24.7746667,15.2766667 24.536,15.2866667 24.292,15.2946667 C24.0926667,15.3013333 23.8926667,15.3073333 23.6893333,15.3126667 C23.1373333,15.3246667 22.5773333,15.3333333 22,15.3333333 C21.4226667,15.3333333 20.8626667,15.3246667 20.3106667,15.312 C20.108,15.3073333 19.908,15.3006667 19.708,15.294 C19.4633333,15.2866667 19.2246667,15.276 18.986,15.266 C14.3086667,15.0593333 10.6173333,14.392 8.25933333,13.6633333 L8.25933333,13.6633333 C6.44266667,13.102 5.41866667,12.5046667 5.34266667,12.054 C5.346,12.0413333 5.346,12.0306667 5.354,12.0146667 C5.39933333,12.026 5.45,12.0353333 5.496,12.0466667 C5.75666667,12.1086667 6.024,12.1686667 6.296,12.226 C7.62066667,12.5113333 9.08866667,12.7453333 10.6526667,12.924 C10.658,12.924 10.662,12.9266667 10.6666667,12.9266667 C10.668,12.9266667 10.6693333,12.926 10.67,12.926 C11.7353333,13.0473333 12.8406667,13.1426667 13.9753333,13.21 C13.984,13.21 13.9913333,13.2146667 14,13.2146667 C14.0046667,13.2146667 14.008,13.212 14.0126667,13.212 C14.8293333,13.26 15.6566667,13.2953333 16.494,13.314 C17.0066667,13.3266667 17.51,13.3333333 18,13.3333333 C18.35,13.3333333 18.7086667,13.3293333 19.0706667,13.3226667 C23.9146667,13.248 28.404,12.672 31.528,11.7793333 C31.672,11.7386667 31.8126667,11.6966667 31.9513333,11.6546667 C32.036,11.6286667 32.1226667,11.6033333 32.2046667,11.5773333 C32.446,11.5 32.6773333,11.4206667 32.9006667,11.338 C32.9393333,11.3233333 32.976,11.3086667 33.0146667,11.294 C33.2033333,11.2226667 33.3846667,11.1486667 33.558,11.0733333 C33.608,11.0513333 33.6593333,11.03 33.708,11.008 C33.8926667,10.9246667 34.0713333,10.8393333 34.2366667,10.7506667 C34.3113333,10.7113333 34.376,10.6706667 34.446,10.6306667 C34.526,10.5846667 34.606,10.538 34.68,10.4906667 C34.722,10.464 34.772,10.4386667 34.812,10.412 C37.7966667,11.0593333 38.5833333,11.7673333 38.6593333,12.0433333 Z M18,1.33333333 C28.9926667,1.33333333 34.5526667,3.064 34.6566667,4.05733333 C34.576,4.508 33.5526667,5.10333333 31.7406667,5.66333333 L31.7406667,5.66333333 C29.382,6.392 25.6913333,7.05933333 21.014,7.266 C20.7746667,7.276 20.536,7.286 20.292,7.294 C20.0926667,7.30066667 19.8926667,7.30666667 19.6893333,7.312 C19.1373333,7.32466667 18.5773333,7.33333333 18,7.33333333 C17.4226667,7.33333333 16.8626667,7.32466667 16.3106667,7.312 C16.108,7.30733333 15.908,7.30066667 15.708,7.294 C15.4633333,7.28666667 15.2246667,7.276 14.986,7.266 C10.3086667,7.05933333 6.61733333,6.392 4.25933333,5.66333333 L4.25933333,5.66333333 C2.44666667,5.10333333 1.424,4.508 1.34333333,4.05733333 C1.44733333,3.064 7.00733333,1.33333333 18,1.33333333 Z M1.33333333,8.664 L1.33333333,5.90333333 C1.866,6.23866667 2.54066667,6.54466667 3.33333333,6.82066667 L3.33333333,10.0126667 C2.03666667,9.52666667 1.33466667,9.03933333 1.33333333,8.664 Z M4.56266667,17.89 C4.57266667,17.9006667 4.588,17.91 4.598,17.9206667 C5.51066667,18.842 7.40066667,19.566 9.75333333,20.106 C9.80733333,20.1186667 9.86466667,20.1306667 9.91933333,20.1433333 C10.092,20.182 10.2673333,20.22 10.4446667,20.2566667 C12.6053333,20.7166667 15.1846667,21.0493333 17.9946667,21.214 C17.9966667,21.214 17.998,21.2146667 17.9993333,21.2146667 C18.0006667,21.2146667 18.0013333,21.214 18.002,21.214 C18.9046667,21.2666667 19.828,21.3033333 20.7706667,21.3193333 C21.188,21.328 21.5986667,21.3333333 22,21.3333333 C22.46,21.3333333 22.932,21.328 23.412,21.3166667 C24.284,21.2986667 25.1433333,21.2626667 25.9906667,21.2133333 C25.994,21.2133333 25.9966667,21.2153333 26,21.2153333 C26.006,21.2153333 26.0106667,21.212 26.0166667,21.212 C28.834,21.046 31.4773333,20.71 33.7126667,20.2266667 C33.2286667,20.48 32.566,20.742 31.7406667,20.9973333 L31.7406667,20.9973333 C29.2506667,21.7666667 25.274,22.4673333 20.22,22.63 C20.07,22.6346667 19.922,22.64 19.77,22.644 C19.6066667,22.648 19.4406667,22.6506667 19.2746667,22.654 C18.8553333,22.6606667 18.4333333,22.6666667 18,22.6666667 C17.4226667,22.6666667 16.8626667,22.658 16.3106667,22.6453333 C16.108,22.6406667 15.908,22.634 15.708,22.6273333 C15.4633333,22.62 15.2246667,22.6093333 14.986,22.5993333 C10.3086667,22.3926667 6.61733333,21.7253333 4.25933333,20.9966667 L4.25933333,20.9966667 C2.426,20.43 1.4,19.8273333 1.34066667,19.3746667 C1.41466667,19.124 2.08866667,18.4966667 4.56266667,17.89 Z M1.33333333,23.9973333 L1.33333333,21.2366667 C1.866,21.572 2.54066667,21.878 3.33333333,22.154 L3.33333333,25.3333333 L2.95266667,25.1853333 L2.94466667,25.1933333 C1.898,24.7593333 1.33466667,24.3333333 1.33333333,23.9973333 Z M3.33333333,31.3306667 L3.33333333,28.57 C3.866,28.9053333 4.54066667,29.2113333 5.33333333,29.4873333 L5.33333333,32.6793333 C4.03666667,32.1933333 3.33466667,31.706 3.33333333,31.3306667 Z M34.6666667,32.6793333 L34.6666667,29.488 C35.4593333,29.212 36.134,28.906 36.6666667,28.5706667 L36.6666667,31.3293333 C36.666,31.7046667 35.9633333,32.1926667 34.6666667,32.6793333 Z M36.658,26.718 C36.5853333,27.1693333 35.5613333,27.768 33.7406667,28.3306667 L33.7406667,28.3306667 C31.382,29.0593333 27.6913333,29.7266667 23.014,29.9333333 C22.7746667,29.9433333 22.536,29.9533333 22.292,29.9613333 C22.0926667,29.968 21.8926667,29.974 21.6893333,29.9793333 C21.1373333,29.9913333 20.5773333,30 20,30 C19.4226667,30 18.862,29.9913333 18.3093333,29.9786667 C18.1086667,29.974 17.9106667,29.9673333 17.7126667,29.9606667 C17.4666667,29.9526667 17.2266667,29.9426667 16.986,29.9326667 C12.3086667,29.726 8.618,29.0586667 6.25933333,28.33 L6.25933333,28.33 C4.496,27.7853333 3.47733333,27.2066667 3.34933333,26.76 C3.548,26.8293333 3.754,26.8966667 3.96533333,26.9626667 C3.98666667,26.9693333 4.008,26.976 4.02933333,26.982 C4.20933333,27.0373333 4.39333333,27.0906667 4.582,27.1426667 C4.65333333,27.1626667 4.72533333,27.1826667 4.798,27.202 C4.90466667,27.2306667 5.014,27.258 5.12333333,27.286 C7.55133333,27.908 10.6506667,28.3486667 13.9966667,28.5466667 C13.998,28.5466667 13.9986667,28.5473333 14,28.5473333 C14.0006667,28.5473333 14.0013333,28.5466667 14.002,28.5466667 C15.0353333,28.608 16.0906667,28.646 17.1573333,28.6586667 C17.4413333,28.664 17.7233333,28.6666667 18,28.6666667 C18.3673333,28.6666667 18.7433333,28.662 19.124,28.6553333 C20.0966667,28.6393333 21.0566667,28.6033333 21.9953333,28.5473333 C21.9973333,28.5473333 21.9986667,28.5486667 22.0006667,28.5486667 C22.004,28.5486667 22.006,28.5466667 22.0093333,28.5466667 C23.1526667,28.478 24.2593333,28.38 25.3226667,28.258 C25.3266667,28.258 25.33,28.26 25.334,28.26 C25.3486667,28.26 25.3606667,28.2526667 25.3753333,28.2513333 C26.5593333,28.1146667 27.682,27.9466667 28.724,27.7513333 C28.9386667,27.712 29.15,27.6713333 29.3593333,27.6293333 C29.406,27.62 29.4526667,27.6106667 29.4993333,27.6006667 C31.468,27.1966667 33.172,26.6733333 34.3413333,26.0246667 C34.4053333,25.99 34.4653333,25.954 34.526,25.9186667 C34.6,25.8746667 34.6706667,25.83 34.7393333,25.7846667 C34.8033333,25.7433333 34.8773333,25.7033333 34.936,25.6613333 C36.252,26.1306667 36.6146667,26.5506667 36.658,26.718 Z M36.6666667,18.0126667 L36.6666667,14.8213333 C37.4593333,14.5453333 38.134,14.2393333 38.6666667,13.904 L38.6666667,16.6626667 C38.666,17.038 37.9633333,17.526 36.6666667,18.0126667 Z"></path>
                    </g>
                </g>
            </g>
        </g>
    </g>
</svg>