<svg width="17px" height="16px" viewBox="0 0 17 16" version="1.1" xmlns="http://www.w3.org/2000/svg" xmlns:xlink="http://www.w3.org/1999/xlink">
    <g stroke="none" stroke-width="1" fill="none" fill-rule="evenodd">
        <g transform="translate(-656.000000, -15074.000000)" fill="#F4AB1B" fill-rule="nonzero">
            <g transform="translate(280.000000, 14985.000000)">
                <g transform="translate(301.000000, 85.000000)">
                    <g transform="translate(75.000000, 4.000000)">
                        <g>
                            <path d="M16.6186667,7.24333333 C16.9463333,6.924 17.062,6.45533333 16.9206667,6.01966667 C16.779,5.584 16.41,5.273 15.9566667,5.207 L11.926,4.62133333 C11.7543333,4.59633333 11.606,4.48866667 11.5293333,4.333 L9.72733333,0.681 C9.525,0.270666667 9.11433333,0.0156666667 8.65666667,0.0156666667 C8.19933333,0.0156666667 7.78866667,0.270666667 7.58633333,0.681 L5.784,4.33333333 C5.70733333,4.489 5.55866667,4.59666667 5.387,4.62166667 L1.35633333,5.20733333 C0.903333333,5.273 0.534,5.58433333 0.392333333,6.02 C0.251,6.45566667 0.366666667,6.92433333 0.694333333,7.24366667 L3.61066667,10.0863333 C3.735,10.2076667 3.792,10.3823333 3.76266667,10.553 L3.07466667,14.567 C3.01366667,14.9203333 3.10633333,15.264 3.335,15.535 C3.69033333,15.9573333 4.31066667,16.086 4.80666667,15.8253333 L8.41133333,13.93 C8.562,13.851 8.75166667,13.8516667 8.902,13.93 L12.507,15.8253333 C12.6823333,15.9176667 12.8693333,15.9643333 13.0623333,15.9643333 C13.4146667,15.9643333 13.7486667,15.8076667 13.9783333,15.535 C14.2073333,15.264 14.2996667,14.9196667 14.2386667,14.567 L13.5503333,10.553 C13.521,10.382 13.578,10.2076667 13.7023333,10.0863333 L16.6186667,7.24333333 Z"></path>
                        </g>
                    </g>
                </g>
            </g>
        </g>
    </g>
</svg>