<?xml version="1.0" standalone="no"?>
<!DOCTYPE svg PUBLIC "-//W3C//DTD SVG 20010904//EN"
 "http://www.w3.org/TR/2001/REC-SVG-20010904/DTD/svg10.dtd">
<svg version="1.0" xmlns="http://www.w3.org/2000/svg"
 width="700.000000pt" height="700.000000pt" viewBox="0 0 700.000000 700.000000"
 preserveAspectRatio="xMidYMid meet">
<metadata>
Created by potrace 1.11, written by Peter Selinger 2001-2013
</metadata>
<g transform="translate(0.000000,700.000000) scale(0.100000,-0.100000)"
fill="#000000" stroke="none">
<path d="M3433 6981 c-45 -28 -66 -74 -60 -130 13 -119 166 -153 234 -52 26
39 29 77 9 124 -27 66 -123 96 -183 58z"/>
<path d="M2534 6870 c-11 -4 -33 -22 -47 -40 -21 -25 -27 -42 -27 -80 0 -41 5
-54 33 -84 55 -58 131 -61 186 -5 99 99 -14 262 -145 209z"/>
<path d="M4343 6861 c-35 -22 -55 -52 -59 -91 -14 -110 100 -187 193 -130 71
43 84 144 25 203 -40 40 -111 48 -159 18z"/>
<path d="M1691 6492 c-37 -20 -71 -73 -71 -110 0 -111 132 -174 213 -102 48
41 61 95 36 149 -32 73 -109 100 -178 63z"/>
<path d="M5183 6490 c-41 -24 -63 -67 -63 -121 0 -35 6 -48 39 -80 34 -34 44
-39 86 -39 54 0 97 25 120 70 58 113 -74 236 -182 170z"/>
<path d="M3134 6180 c-62 -25 -90 -136 -48 -193 23 -32 72 -57 111 -57 34 0
86 31 108 64 36 55 8 158 -50 184 -30 14 -90 15 -121 2z"/>
<path d="M3743 6177 c-107 -60 -77 -228 44 -244 140 -19 206 178 82 243 -34
17 -96 18 -126 1z"/>
<path d="M2443 6100 c-43 -26 -64 -61 -65 -108 -1 -75 55 -132 129 -132 134 0
179 187 58 244 -44 21 -83 20 -122 -4z"/>
<path d="M4433 6104 c-119 -59 -75 -244 59 -244 50 0 81 16 104 53 43 72 30
141 -35 184 -40 27 -83 29 -128 7z"/>
<path d="M985 5916 c-60 -26 -88 -105 -61 -169 28 -67 110 -95 180 -62 90 43
88 183 -4 230 -35 18 -75 19 -115 1z"/>
<path d="M5900 5912 c-121 -61 -78 -242 57 -242 71 0 133 62 133 132 0 37 -34
90 -71 110 -42 23 -74 23 -119 0z"/>
<path d="M1771 5869 c-88 -35 -108 -151 -36 -216 19 -18 44 -34 55 -34 11 -1
26 -2 33 -3 24 -4 65 15 91 43 51 54 41 156 -19 195 -30 20 -93 27 -124 15z"/>
<path d="M5123 5865 c-89 -38 -96 -179 -12 -229 38 -22 102 -23 135 -1 33 22
64 74 64 108 0 39 -27 92 -55 111 -34 22 -95 27 -132 11z"/>
<path d="M2846 5555 c-85 -44 -94 -152 -18 -215 105 -86 253 34 194 159 -30
63 -111 89 -176 56z"/>
<path d="M4023 5550 c-42 -25 -62 -65 -58 -117 10 -129 169 -167 241 -58 20
30 15 126 -8 148 -52 51 -119 61 -175 27z"/>
<path d="M3443 5536 c-49 -22 -75 -70 -70 -130 11 -130 182 -162 242 -46 19
36 19 71 1 115 -26 61 -108 90 -173 61z"/>
<path d="M2278 5518 c-52 -30 -75 -90 -58 -145 16 -48 26 -60 64 -80 66 -34
146 -7 176 59 53 119 -72 232 -182 166z"/>
<path d="M4593 5521 c-44 -28 -67 -66 -67 -115 0 -159 233 -174 258 -16 15
101 -105 184 -191 131z"/>
<path d="M1180 5362 c-104 -46 -112 -190 -14 -237 114 -54 231 61 177 174 -27
55 -109 87 -163 63z"/>
<path d="M5715 5358 c-51 -28 -81 -89 -70 -140 34 -156 258 -136 258 23 0 48
-37 105 -77 119 -38 13 -86 12 -111 -2z"/>
<path d="M1815 5322 c-61 -13 -112 -90 -100 -151 12 -64 75 -112 138 -105 74
7 117 53 120 126 2 84 -75 148 -158 130z"/>
<path d="M5103 5314 c-69 -29 -100 -126 -59 -187 88 -132 288 -32 229 115 -27
68 -102 100 -170 72z"/>
<path d="M485 5178 c-121 -26 -140 -190 -29 -243 86 -41 187 23 186 117 -1 86
-73 144 -157 126z"/>
<path d="M6475 5183 c-74 -15 -118 -65 -117 -134 2 -95 100 -155 186 -114 55
26 77 77 67 162 -4 38 -93 94 -136 86z"/>
<path d="M2649 4906 c-2 -2 -27 -7 -55 -10 -251 -28 -464 -160 -571 -356 -44
-80 -86 -212 -99 -310 -3 -25 -8 -48 -10 -51 -16 -27 -23 -376 -10 -509 59
-607 351 -1313 671 -1625 189 -183 374 -216 498 -89 74 77 122 190 207 489 64
225 107 331 155 382 35 36 46 42 70 37 80 -14 123 -103 230 -474 30 -102 67
-218 84 -257 65 -157 141 -235 242 -249 60 -9 64 -9 135 11 209 59 467 388
653 831 97 231 155 425 217 729 2 11 6 44 10 73 3 29 7 63 10 75 21 105 20
457 -2 571 -2 11 -6 38 -9 59 -19 127 -74 273 -136 364 -110 160 -263 247
-524 299 -54 11 -379 14 -430 4 -183 -35 -486 -78 -520 -74 -22 3 -85 14 -140
24 -136 26 -152 29 -210 36 -27 3 -61 8 -75 11 -32 6 -385 15 -391 9z m351
-199 c14 -3 50 -7 80 -11 30 -4 66 -9 80 -12 14 -2 34 -6 45 -8 144 -25 159
-29 136 -38 -13 -4 -38 -15 -55 -22 -59 -27 -218 -81 -262 -91 -10 -2 -48 -10
-84 -19 -86 -20 -191 -32 -313 -34 l-68 -2 16 -29 c41 -81 160 -134 300 -134
203 -2 431 74 870 288 116 56 197 87 264 100 228 44 453 23 601 -56 148 -79
247 -248 276 -468 3 -25 9 -72 13 -104 9 -69 7 -320 -3 -392 -4 -27 -9 -66
-12 -85 -65 -506 -326 -1121 -586 -1384 -86 -86 -123 -111 -178 -121 -70 -12
-110 67 -215 430 -58 202 -96 304 -142 380 -83 136 -181 187 -317 163 -141
-26 -232 -149 -313 -423 -116 -394 -148 -484 -189 -528 -29 -32 -55 -32 -120
-1 -52 24 -176 151 -241 245 -131 191 -263 466 -341 709 -20 63 -70 242 -77
278 -2 9 -8 37 -14 62 -53 235 -70 586 -37 756 2 12 7 39 10 60 43 279 217
455 481 490 28 3 52 8 55 11 5 4 300 -4 340 -10z"/>
<path d="M1450 4889 c-56 -23 -88 -77 -81 -139 13 -110 154 -154 225 -69 67
80 20 199 -84 213 -19 3 -46 0 -60 -5z"/>
<path d="M5444 4882 c-37 -17 -74 -77 -74 -118 0 -59 58 -122 115 -125 54 -3
70 1 96 24 35 30 49 59 49 102 0 98 -98 159 -186 117z"/>
<path d="M897 4725 c-85 -29 -115 -96 -79 -178 38 -85 143 -100 209 -30 89 94
-8 250 -130 208z"/>
<path d="M6045 4731 c-125 -24 -145 -198 -29 -247 43 -18 68 -18 106 2 43 22
66 52 73 95 7 39 -11 95 -37 116 -27 23 -83 39 -113 34z"/>
<path d="M1284 4381 c-39 -24 -67 -81 -61 -126 21 -153 241 -151 254 2 5 58
-10 89 -56 120 -42 28 -95 30 -137 4z"/>
<path d="M5585 4382 c-41 -26 -52 -41 -63 -89 -30 -132 159 -212 233 -99 76
116 -54 259 -170 188z"/>
<path d="M155 4306 c-76 -23 -110 -121 -65 -193 41 -67 138 -78 196 -22 101
98 6 256 -131 215z"/>
<path d="M6744 4302 c-50 -26 -74 -65 -74 -119 0 -96 124 -163 203 -108 51 36
73 116 45 168 -16 31 -60 67 -83 68 -11 1 -29 3 -41 4 -12 1 -34 -5 -50 -13z"/>
<path d="M773 4005 c-76 -33 -96 -144 -37 -206 34 -36 77 -49 124 -36 121 32
132 202 16 247 -36 13 -64 12 -103 -5z"/>
<path d="M6111 4002 c-108 -58 -86 -213 34 -240 75 -16 144 33 152 111 6 55
-14 97 -60 126 -42 26 -82 27 -126 3z"/>
<path d="M1279 3875 c-58 -25 -87 -93 -67 -159 23 -73 98 -108 170 -79 51 20
80 62 80 118 2 97 -92 158 -183 120z"/>
<path d="M5611 3873 c-89 -47 -102 -166 -24 -221 39 -27 66 -32 113 -20 105
27 127 173 36 233 -38 25 -87 28 -125 8z"/>
<path d="M66 3381 c-66 -44 -84 -122 -41 -185 29 -43 61 -58 118 -53 68 6 108
46 114 114 2 28 -2 58 -9 73 -32 61 -127 87 -182 51z"/>
<path d="M6803 3380 c-82 -50 -83 -176 -2 -224 38 -23 105 -20 140 5 44 31 62
73 54 125 -14 94 -113 143 -192 94z"/>
<path d="M1342 3380 c-106 -25 -130 -175 -37 -236 85 -56 200 8 199 112 -1 88
-74 144 -162 124z"/>
<path d="M5583 3378 c-70 -19 -109 -109 -76 -175 63 -127 245 -88 245 51 0 92
-78 149 -169 124z"/>
<path d="M770 3327 c-74 -35 -101 -117 -60 -184 38 -63 104 -84 167 -52 119
59 87 231 -45 244 -20 2 -48 -2 -62 -8z"/>
<path d="M6145 3333 c-109 -28 -130 -180 -33 -238 82 -48 179 0 195 98 13 84
-76 162 -162 140z"/>
<path d="M1475 2877 c-113 -37 -122 -184 -14 -240 84 -43 189 27 183 122 -5
88 -87 145 -169 118z"/>
<path d="M5430 2872 c-45 -22 -73 -67 -74 -117 -1 -158 230 -178 258 -23 18
100 -93 184 -184 140z"/>
<path d="M892 2699 c-87 -43 -93 -169 -10 -223 83 -54 204 12 200 110 -4 101
-100 157 -190 113z"/>
<path d="M5988 2701 c-64 -32 -88 -107 -55 -173 65 -127 253 -73 242 70 -7 89
-107 144 -187 103z"/>
<path d="M253 2484 c-83 -41 -96 -153 -27 -216 27 -23 84 -36 119 -27 113 30
126 200 20 245 -44 18 -72 17 -112 -2z"/>
<path d="M6633 2485 c-91 -39 -97 -179 -11 -230 108 -63 237 55 183 168 -30
64 -106 91 -172 62z"/>
<path d="M1663 2384 c-119 -60 -74 -244 59 -244 50 0 79 15 106 55 28 40 31
104 8 140 -37 56 -116 79 -173 49z"/>
<path d="M5192 2363 c-23 -22 -43 -47 -43 -56 -1 -10 -2 -27 -3 -39 -3 -35 29
-91 62 -110 109 -64 234 43 187 159 -21 50 -57 75 -115 81 -44 4 -50 1 -88
-35z"/>
<path d="M1150 2154 c-51 -22 -75 -59 -75 -119 0 -74 36 -115 113 -130 37 -7
99 24 122 60 67 109 -43 239 -160 189z"/>
<path d="M5741 2152 c-63 -30 -90 -116 -57 -181 55 -105 222 -76 241 41 18
105 -89 186 -184 140z"/>
<path d="M1959 1933 c-75 -46 -84 -146 -20 -207 62 -60 163 -40 201 39 22 46
21 74 -4 124 -30 57 -120 80 -177 44z"/>
<path d="M4902 1930 c-38 -23 -65 -79 -58 -120 15 -98 113 -149 193 -100 43
26 64 61 65 108 1 105 -110 167 -200 112z"/>
<path d="M3465 1741 c-78 -22 -118 -117 -80 -190 19 -37 86 -71 128 -64 128
20 160 178 49 241 -37 21 -57 23 -97 13z"/>
<path d="M1545 1680 c-71 -16 -106 -59 -107 -132 -1 -108 144 -169 217 -90 50
54 54 143 7 185 -30 27 -85 44 -117 37z"/>
<path d="M5410 1682 c-38 -6 -87 -48 -100 -86 -27 -84 22 -160 112 -172 101
-14 175 105 122 195 -26 45 -82 71 -134 63z"/>
<path d="M659 1657 c-41 -27 -59 -60 -59 -107 0 -47 18 -80 59 -107 65 -44
157 -18 187 52 18 45 18 69 -3 112 -33 70 -119 94 -184 50z"/>
<path d="M6202 1660 c-59 -36 -78 -118 -42 -177 67 -110 240 -62 240 67 0 100
-112 162 -198 110z"/>
<path d="M2383 1549 c-70 -34 -94 -119 -53 -186 23 -38 47 -52 98 -57 73 -8
131 42 139 118 10 99 -94 170 -184 125z"/>
<path d="M4514 1555 c-105 -45 -111 -191 -10 -239 112 -53 225 64 171 178 -27
56 -104 85 -161 61z"/>
<path d="M2954 1406 c-45 -20 -74 -66 -74 -116 0 -134 162 -182 238 -70 42 61
16 152 -53 184 -40 19 -70 20 -111 2z"/>
<path d="M3931 1402 c-120 -65 -71 -244 66 -244 61 0 125 64 125 124 0 72 -61
138 -127 138 -17 0 -46 -8 -64 -18z"/>
<path d="M1984 1254 c-22 -8 -40 -14 -41 -14 -1 0 -11 -16 -23 -35 -30 -49
-29 -106 4 -150 71 -92 215 -52 233 65 4 29 -17 87 -41 109 -34 32 -85 41
-132 25z"/>
<path d="M4942 1262 c-30 -5 -89 -62 -98 -95 -3 -15 -1 -47 6 -70 41 -142 250
-112 250 36 0 82 -73 142 -158 129z"/>
<path d="M1318 997 c-41 -10 -84 -53 -94 -93 -25 -99 77 -189 174 -152 84 32
109 146 46 209 -37 36 -78 48 -126 36z"/>
<path d="M5614 998 c-18 -4 -46 -24 -63 -43 -79 -91 4 -233 123 -211 68 13
119 93 102 160 -16 66 -96 112 -162 94z"/>
<path d="M2682 900 c-112 -69 -61 -244 70 -242 47 1 82 22 108 65 23 36 24 56
10 109 -21 72 -121 109 -188 68z"/>
<path d="M4191 903 c-66 -33 -90 -116 -51 -180 45 -75 133 -88 196 -30 31 28
37 41 41 83 5 61 -21 108 -72 130 -44 18 -72 17 -114 -3z"/>
<path d="M3443 785 c-104 -45 -91 -208 20 -242 80 -24 167 41 167 124 0 43
-33 96 -71 115 -41 21 -73 22 -116 3z"/>
<path d="M2063 501 c-115 -72 -64 -248 70 -243 122 5 169 167 69 238 -36 25
-103 28 -139 5z"/>
<path d="M4811 502 c-39 -21 -71 -73 -71 -115 0 -81 86 -147 165 -126 113 30
126 200 20 245 -46 19 -73 18 -114 -4z"/>
<path d="M2933 238 c-39 -27 -57 -76 -50 -130 14 -102 141 -142 216 -67 110
109 -40 285 -166 197z"/>
<path d="M3923 240 c-85 -51 -81 -174 8 -222 69 -37 146 -10 178 63 39 86 -21
179 -114 179 -22 0 -54 -9 -72 -20z"/>
</g>
</svg>
