<svg width="40px" height="42px" viewBox="0 0 40 42" version="1.1" xmlns="http://www.w3.org/2000/svg" xmlns:xlink="http://www.w3.org/1999/xlink">
    <g stroke="none" stroke-width="1" fill="none" fill-rule="evenodd">
        <g transform="translate(-396.000000, -497.000000)">
            <g transform="translate(40.000000, 0.000000)">
                <g transform="translate(60.000000, 133.000000)">
                    <g transform="translate(296.000000, 361.000000)">
                        <g transform="translate(0.000000, 4.000000)">
                            <rect x="0" y="0" width="40" height="40"></rect>
                            <g transform="translate(1.000000, 0.000000)" fill="#FFFFFF" fill-rule="nonzero" stroke="#FFFFFF" stroke-linejoin="round" stroke-width="0.2">
                                <path d="M25.3054046,17.1558814 L21.0358806,20.8490796 L21.0358806,21.5814307 L25.3054046,25.2749563 C26.0419522,25.9116694 26.4643985,26.8316937 26.4643985,27.7988819 L26.4643985,29.9353427 C27.213868,29.9353427 27.821528,30.5360278 27.821528,31.2768947 L27.821528,32.6184466 C27.821528,33.3593134 27.213868,33.9599985 26.4643985,33.9599985 L11.5359741,33.9599985 C10.7865046,33.9599985 10.1788446,33.3593134 10.1788446,32.6184466 L10.1788446,31.2768947 C10.1788446,30.5360278 10.7865046,29.9353427 11.5359741,29.9353427 L11.5359741,27.7988819 C11.5359741,26.8316937 11.9584204,25.9116694 12.694968,25.2749563 L16.9644921,21.5814307 L16.9644921,20.8490796 L12.694968,17.1558814 C11.9584204,16.5188408 11.5359741,15.5988165 11.5359741,14.6316283 L11.5359741,12.4951676 C10.7865046,12.4951676 10.1788446,11.8944824 10.1788446,11.1536157 L10.1788446,9.81206372 C10.1788446,9.07119686 10.7865046,8.47051179 11.5359741,8.47051179 L26.4643985,8.47051179 C27.213868,8.47051179 27.821528,9.07119686 27.821528,9.81206372 L27.821528,11.1536157 C27.821528,11.8944824 27.213868,12.4951676 26.4643985,12.4951676 L26.4643985,14.6316283 C26.4643985,15.5988165 26.0419522,16.5188408 25.3054046,17.1558814 Z M11.5359741,9.81206372 L11.5359741,11.1536157 L26.4643985,11.1536157 L26.4643985,9.81206372 L11.5359741,9.81206372 Z M12.8931036,12.4951676 L12.8931036,14.6316283 C12.8937662,15.071825 13.040877,15.4995757 13.3119053,15.8490474 L24.6887987,15.8490474 C24.9594956,15.4995757 25.1066064,15.071825 25.1072691,14.6316283 L25.1072691,12.4951676 L12.8931036,12.4951676 Z M26.4643985,32.6184466 L26.4643985,31.2768947 L11.5359741,31.2768947 L11.5359741,32.6184466 L26.4643985,32.6184466 Z M20.1422824,22.5918525 C19.8477296,22.3367087 19.6787511,21.9685679 19.6787511,21.5814307 L19.6787511,20.8490796 C19.6794137,20.4616147 19.8497176,20.0931465 20.1455957,19.8389853 L23.2074203,17.1905994 L14.796597,17.1905994 L17.8580903,19.8389853 C18.1529743,20.0938016 18.3219529,20.4619422 18.3216216,20.8490796 L18.3216216,21.5814307 C18.3219529,21.9685679 18.1529743,22.3367087 17.8580903,22.5918525 L13.5885662,26.2850506 C13.1469027,26.6669475 12.8934349,27.218831 12.8931036,27.7988819 L12.8931036,29.9353427 L25.1072691,29.9353427 L25.1072691,27.7988819 C25.1069377,27.218831 24.8534699,26.6669475 24.4118064,26.2850506 L20.1422824,22.5918525 Z M18.3216216,23.2275831 L19.6787511,23.2275831 L19.6787511,24.569135 L18.3216216,24.569135 L18.3216216,23.2275831 Z M18.3216216,25.9106869 L19.6787511,25.9106869 L19.6787511,27.2522389 L18.3216216,27.2522389 L18.3216216,25.9106869 Z M36.6428697,21.2152552 L38,21.2152552 C38.0016559,31.3617242 29.8502643,39.6753503 19.5909485,39.9907592 C9.33163262,40.306168 0.673305579,32.5097074 0.0371511286,22.3825625 C-0.599334715,12.2554175 7.01596418,3.45967118 17.2358517,2.51737508 L15.445342,1.03105603 L16.3150844,2.84217094e-14 L19.4365485,2.58648328 C19.723812,2.82459567 19.760921,3.24776098 19.5200438,3.53172719 L16.9028646,6.61736213 L15.8631497,5.7553102 L17.4870002,3.8422231 C7.97483452,4.65154306 0.839633418,12.7945275 1.38666,22.2168337 C1.93335519,31.6394673 9.9634798,38.922365 19.5071219,38.6511724 C29.0507639,38.3799797 36.6445264,30.6532826 36.6428697,21.2152552 Z M35.54716,15.1501041 C35.3977299,14.7511758 35.2300767,14.3506099 35.0481763,13.9582321 L36.2827135,13.4001255 C36.4808492,13.8226358 36.6591049,14.2546443 36.8201316,14.6853428 L35.54716,15.1501041 Z M27.6959538,4.51299907 L27.0757032,5.70618114 C26.6857273,5.50769954 26.2868054,5.32330163 25.8918595,5.15691775 L26.4229822,3.92279478 C26.8477479,4.10096965 27.2768208,4.29977876 27.6959538,4.51299907 Z M36.61305,20.188457 C36.5865435,19.7577585 36.5451272,19.3257499 36.4888011,18.9032397 L37.834334,18.7260475 C37.8976181,19.1816379 37.9423477,19.6463992 37.9701795,20.1098504 L36.61305,20.188457 Z M36.269129,17.6307961 C36.1800011,17.2092684 36.0743067,16.7880682 35.9540337,16.3770214 L37.2584817,16.0059329 C37.3880319,16.449405 37.5013469,16.9030303 37.597764,17.3556731 L36.269129,17.6307961 Z M33.0356752,10.6452932 C32.7752495,10.3043372 32.4929559,9.96894925 32.2023791,9.64895507 L33.2202262,8.75840824 C33.5303515,9.10296699 33.8308683,9.46455716 34.1138245,9.83171528 L33.0356752,10.6452932 Z M34.4613901,12.8063185 C34.251658,12.4280244 34.0250279,12.0579186 33.7887893,11.6996036 L34.925584,10.9665975 C35.1800458,11.3527523 35.4235737,11.7552833 35.649541,12.1578144 L34.4613901,12.8063185 Z M25.1072691,3.42495324 L24.6715695,4.69543177 C24.2544245,4.55590517 23.8329721,4.43177229 23.4191404,4.32663595 L23.7584228,3.02733511 C24.2040622,3.14131462 24.657985,3.27461826 25.1072691,3.42495324 Z M22.3837328,2.7292852 L22.1435183,4.05020297 C21.717096,3.97421663 21.2823904,3.91329651 20.8506668,3.8697354 L20.9911509,2.53407891 C21.4560076,2.58255296 21.9248401,2.64838601 22.3837328,2.7292852 Z M30.0941235,5.96591029 L29.2995931,7.05592124 C28.9447382,6.80176003 28.5782868,6.56004482 28.2138233,6.33961895 L28.9228704,5.19589352 C29.3158283,5.43400591 29.7094489,5.69275246 30.0941235,5.96591029 Z M32.2477714,7.75224429 L31.3031483,8.71484713 C30.9903724,8.4148321 30.6640118,8.12300523 30.3323501,7.84820978 L31.2050745,6.82108408 C31.5619174,7.11618627 31.9127963,7.4296299 32.2477714,7.75224429 Z"></path>
                            </g>
                        </g>
                    </g>
                </g>
            </g>
        </g>
    </g>
</svg>