<svg width="190px" height="192px" viewBox="0 0 190 192" version="1.1" xmlns="http://www.w3.org/2000/svg" xmlns:xlink="http://www.w3.org/1999/xlink">
    <!-- Generator: Sketch 55.1 (78136) - https://sketchapp.com -->
    <title>Ресурс 8</title>
    <desc>Created with Sketch.</desc>
    <defs>
        <path d="M80.4854728,76.5085859 C80.4854728,102.472222 62.4730759,113.001919 40.2427364,100.020101 C18.0123969,87.0382828 0,55.4612121 0,29.509596 C0,3.5579798 18.0123969,-6.99575758 40.2427364,5.99808081 C62.4730759,18.9919192 80.4854728,50.5449495 80.4854728,76.5085859 Z" id="path-1"></path>
    </defs>
    <g id="Page-1" stroke="none" stroke-width="1" fill="none" fill-rule="evenodd">
        <g id="Инвесторы" transform="translate(-930.000000, -15136.000000)">
            <g id="Group-7" transform="translate(280.000000, 14985.000000)">
                <g id="Ресурс-8" transform="translate(650.000000, 151.000000)">
                    <g id="Ресурс-7">
                        <polygon id="Path" fill="#E82C88" fill-rule="nonzero" points="157.433645 19.5555556 169.579439 11.8837117 164.856075 8.88888889 152.71028 16.5734767 157.433645 19.5555556"></polygon>
                        <polygon id="Path" fill="#FFFFFF" fill-rule="nonzero" points="140.564486 29.3333333 152.71028 21.6614894 147.986916 18.6666667 135.841121 26.3512545 140.564486 29.3333333"></polygon>
                        <polygon id="Path" fill="#FFFFFF" fill-rule="nonzero" points="161.109279 26.6666667 178.457944 16.2410687 173.610347 13.3333333 156.261682 23.7589313 161.109279 26.6666667"></polygon>
                        <polygon id="Path" fill="#E0F0FC" fill-rule="nonzero" points="147.770495 33.7777778 155.373832 29.4307863 150.535345 26.6666667 142.943925 31.0136582 147.770495 33.7777778"></polygon>
                        <path d="M128.111614,189.162691 L167.39131,166.196027 C174.579519,161.997303 173.676537,154.658557 165.371483,149.798142 C157.066429,144.937727 144.519739,144.420406 137.331531,148.595069 L98.0518341,171.585794 C90.9230326,175.79655 91.7666074,183.135295 100.071661,187.983679 C108.376715,192.832064 120.923406,193.361416 128.111614,189.186752 L128.111614,189.162691 Z" id="Path" fill="#EAEAEA" fill-rule="nonzero"></path>
                        <path d="M141.097479,128.833906 L141.097479,121.209622 L150.046729,75.7260023 L141.227179,70.2222222 L123.540914,80.0742268 L123.411215,138.638259 C123.411215,142.581443 124.873279,145.249943 127.11354,146.119588 L136.344381,151.455812 L135.956672,147.334708 L137.300828,140.460939 C139.645904,137.018127 140.956166,132.963894 141.073898,128.786254 L141.097479,128.833906 Z" id="Path" fill="#009F9F" fill-rule="nonzero"></path>
                        <path d="M141.956198,150.990641 L141.956198,150.990641 C137.090949,153.747153 133.165845,150.664211 133.17757,144.099358 L133.306866,84.665071 L150.934579,74.6666667 L150.781806,134.100954 C150.781806,140.665807 146.821446,148.234128 141.956198,151.02691 L141.956198,150.990641 Z" id="Path" fill="#00D6D6" fill-rule="nonzero"></path>
                        <path d="M190,43.7203831 C190,58.658084 179.468288,64.7145556 166.471963,57.2457052 C153.475637,49.7768548 142.943925,31.6194091 142.943925,16.7176162 C142.943925,1.8158233 153.475637,-4.27655629 166.471963,3.19229413 C179.468288,10.6611446 190,28.8185902 190,43.756291 L190,43.7203831 Z" id="Path" fill="#00D6D6" fill-rule="nonzero"></path>
                        <polygon id="Path" fill="#00D6D6" fill-rule="nonzero" points="182.897196 58.7149662 114.755991 97.7777778 78.1308411 42.7668107 149.119738 1.77777778 182.897196 58.7149662"></polygon>
                        <path d="M156.261682,63.6613693 C156.261682,48.2991139 145.48644,29.6346914 132.173029,21.9535636 C126.12692,18.4599666 120.595629,17.8497836 116.36934,19.6564039 L116.36934,19.6564039 L116.285532,19.6564039 L116.17778,19.6564039 L115.627045,19.9315845 C90.466899,32.3213475 62.6139543,38.2508366 34.5852485,37.184211 L26.635514,36.8731373 L91.2869695,147.555556 L94.7829371,140.795685 C107.541327,116.147198 126.191491,95.0274171 149.078187,79.3107697 C153.508009,76.82218 156.261682,71.4023189 156.261682,63.6613693 Z" id="Path" fill="#E0F0FC" fill-rule="nonzero"></path>
                        <path d="M99.4392523,122.532444 C99.4392523,93.1547721 78.7711975,57.4290407 53.271028,42.7402046 C40.5448647,35.4136853 29.0267299,34.6977387 20.6781754,39.4707155 L20.6781754,39.4707155 L20.6781754,39.4707155 L20.618372,39.4707155 L13.0472616,43.909584 L15.7144932,43.4084214 C10.2723839,49.0166691 7.10280374,57.8347438 7.10280374,69.3376179 C7.10280374,98.7152901 27.7708586,134.429089 53.2829887,149.129857 C63.2821171,154.893227 72.551644,156.551836 80.1107937,154.678443 L78.9147257,156.444444 L85.887802,152.375482 L85.9954482,152.303887 L86.2466224,152.160698 L86.2466224,152.160698 C94.4157668,147.280329 99.4392523,137.030361 99.4392523,122.532444 Z" id="Path" fill="#04C5C5" fill-rule="nonzero"></path>
                        <path d="M94.1121495,125.891606 C94.1121495,96.5770749 73.4190053,60.9400349 47.9026469,46.2708624 C35.3479284,39.0672509 23.9661006,38.2814023 15.5883094,42.8297984 L14.3914821,43.5084857 C13.9965291,43.7585284 13.6135443,44.0204779 13.1946548,44.2943342 L15.5883094,43.8061556 C10.2743961,49.4023497 7.10280374,58.2014718 7.10280374,69.679623 C7.10280374,98.9941544 27.7839797,134.631194 53.3123064,149.300367 C63.3177827,155.051349 72.5931944,156.706394 80.157143,154.837027 L79.0680302,156.444444 C88.3075371,152.03893 94.1121495,141.418068 94.1121495,125.891606 L94.1121495,125.891606 Z" id="Path" fill="#FFFFFF" fill-rule="nonzero"></path>
                        <path d="M92.3364486,127.076192 C92.3364486,156.493598 71.6710706,168.406333 46.1742039,153.69763 C20.6773371,138.988927 0,103.226824 0,73.8094183 C0,44.3920122 20.6773371,32.4673285 46.1742039,47.2118773 C71.6710706,61.9564261 92.3364486,97.6946315 92.3364486,127.112038 L92.3364486,127.076192 Z" id="Path" fill="#00D6D6" fill-rule="nonzero"></path>
                        <g id="Path-+-Path-Mask" transform="translate(6.214953, 47.111111)">
                            <mask id="mask-2" fill="white">
                                <use xlink:href="#path-1"></use>
                            </mask>
                            <use id="Mask" fill="#009F9F" fill-rule="nonzero" xlink:href="#path-1"></use>
                            <polygon id="Path" fill="#FFFFFF" fill-rule="nonzero" mask="url(#mask-2)" points="34.2188015 43.2727273 92.6165132 -2.4040404 113.81316 34.8105051 45.2805044 63.2623232 34.2188015 43.2727273"></polygon>
                            <path d="M48.2746495,57.6969697 C48.2746495,62.8776768 44.710191,64.9812121 40.2427364,62.3968687 C35.5006798,59.2612226 32.5146349,54.0315471 32.1989417,48.3091919 C32.1989417,43.1284848 35.7634002,41.0249495 40.2427364,43.6213131 C44.9770127,46.7571536 47.9579591,51.9811615 48.2746495,57.6969697 L48.2746495,57.6969697 Z" id="Path" fill="#00D6D6" fill-rule="nonzero" mask="url(#mask-2)"></path>
                        </g>
                        <path d="M47.9422079,145.631052 C25.4505685,132.608764 7.22645023,100.991805 7.22645023,74.9953711 C7.22645023,61.3833494 12.2513061,51.959642 20.2814585,48 C11.1573781,51.3578727 5.3271028,61.1185709 5.3271028,75.8258127 C5.3271028,101.822247 23.5512211,133.439206 46.0428605,146.437423 C56.7176739,152.611576 66.4788771,153.466089 73.6915888,149.891579 C66.671216,152.467152 57.7034111,151.263613 47.9301867,145.619017 L47.9422079,145.631052 Z" id="Path" fill="#FFFFFF" fill-rule="nonzero"></path>
                        <g id="Group" transform="translate(37.289720, 44.444444)"></g>
                        <path d="M128.450867,129.533669 L128.137918,129.362422 C126.864304,128.469075 126.098273,127.032105 126.074766,125.492227 L126.074766,114.669382 C126.074766,113.17382 126.990435,112.48883 128.126327,113.128154 L128.439277,113.299402 C129.710142,114.196441 130.478645,115.629996 130.514019,117.169596 L130.514019,127.992441 C130.514019,129.488003 129.59835,130.18441 128.462458,129.533669 L128.450867,129.533669 Z" id="Path" fill="#007373" fill-rule="nonzero"></path>
                    </g>
                </g>
            </g>
        </g>
    </g>
</svg>