<svg width="40px" height="40px" viewBox="0 0 40 40" version="1.1" xmlns="http://www.w3.org/2000/svg" xmlns:xlink="http://www.w3.org/1999/xlink">
    <g stroke="none" stroke-width="1" fill="none" fill-rule="evenodd">
        <g transform="translate(-640.000000, -11498.000000)" fill="#00D6D6" fill-rule="nonzero">
            <g transform="translate(640.000000, 11494.000000)">
                <g transform="translate(0.000000, 4.000000)">
                    <path d="M39.1510204,17.2734694 C39.5755102,17.2734694 40,17.6163265 40,18.1306122 L40,29.1918367 C40,29.6979592 39.6653061,30.0408163 39.1510204,30.0408163 L38.2122449,30.0408163 L38.2122449,37.1102041 C38.2122449,38.7265306 36.9387755,40 35.322449,40 L2.80816327,40 C1.27346939,40 0,38.7265306 0,37.1102041 L0,10.3836735 C0,8.84081633 1.16734694,7.60816327 2.60408163,7.49387755 C2.6122449,7.49387755 2.62857143,7.48571429 2.63673469,7.48571429 L31.7469388,2.84217094e-14 C31.8367347,2.84217094e-14 31.9183673,2.84217094e-14 31.9183673,2.84217094e-14 C33.3632653,2.84217094e-14 34.555102,1.27346939 34.555102,2.88979592 L34.555102,7.49387755 L35.322449,7.49387755 C36.8571429,7.49387755 38.1306122,8.76734694 38.1306122,10.3836735 L38.1306122,17.2734694 L39.1510204,17.2734694 Z M32.0816327,1.61632653 L9.44489796,7.48571429 L32.9306122,7.48571429 L32.9306122,2.88979592 C32.9306122,2.2122449 32.5061224,1.69795918 32.0816327,1.61632653 Z M36.5142857,37.1102041 L36.5142857,30.0408163 L28,30.0408163 C24.5061224,30.0408163 21.6163265,27.2326531 21.6163265,23.6571429 C21.6163265,20.0816327 24.4244898,17.2734694 28,17.2734694 L36.4244898,17.2734694 L36.4244898,10.3836735 C36.4244898,9.70612245 35.9102041,9.11020408 35.2326531,9.11020408 L2.80816327,9.11020408 C2.13061224,9.11020408 1.61632653,9.70612245 1.61632653,10.3836735 L1.61632653,37.1102041 C1.61632653,37.7877551 2.13061224,38.3836735 2.80816327,38.3836735 L35.322449,38.3836735 C36,38.3836735 36.5142857,37.7877551 36.5142857,37.1102041 Z M38.2938776,28.4244898 L38.2938776,19.0693878 L28,19.0693878 C25.4530612,19.0693878 23.322449,21.2 23.322449,23.7469388 C23.322449,26.2938776 25.444898,28.4244898 28,28.4244898 L38.2938776,28.4244898 Z M27.0612245,23.8285714 C27.0612245,23.322449 27.4040816,22.9795918 27.9183673,22.9795918 L28.677551,22.9795918 C29.1020408,22.9795918 29.5265306,23.3142857 29.5265306,23.8285714 C29.5265306,24.3346939 29.1020408,24.677551 28.677551,24.677551 L27.9102041,24.677551 C27.4857143,24.677551 27.0612245,24.3428571 27.0612245,23.8285714 Z"></path>
                </g>
            </g>
        </g>
    </g>
</svg>